<?xml version="1.0" standalone="no"?>
<!DOCTYPE svg PUBLIC "-//W3C//DTD SVG 20010904//EN"
 "http://www.w3.org/TR/2001/REC-SVG-20010904/DTD/svg10.dtd">
<svg version="1.0" xmlns="http://www.w3.org/2000/svg"
 width="1035.000000pt" height="1035.000000pt" viewBox="0 0 1035.000000 1035.000000"
 preserveAspectRatio="xMidYMid meet">
<metadata>
Created by potrace 1.11, written by Peter Selinger 2001-2013
</metadata>
<g transform="translate(0.000000,1035.000000) scale(0.100000,-0.100000)"
fill="#000000" stroke="none">
<path d="M3270 8675 l0 -1195 -1195 0 -1195 0 0 -785 0 -785 1197 0 1196 0 -6
-1188 -7 -1189 467 -6 c256 -4 610 -7 785 -7 l318 0 0 618 c0 339 3 877 7
1195 l6 577 1189 0 1188 0 0 785 0 785 -1190 0 -1190 0 -2 1193 -3 1192 -782
3 -783 2 0 -1195z"/>
<path d="M7790 9449 c-269 -16 -487 -75 -890 -241 -373 -154 -329 -154 -690
-3 -217 90 -428 164 -557 194 -109 25 -279 51 -344 51 l-46 0 -6 -766 c-4
-422 -4 -770 -1 -775 3 -5 442 -9 993 -9 630 0 1008 -4 1042 -10 119 -23 235
-103 294 -204 56 -96 56 -88 53 -1017 l-3 -854 -23 -55 c-46 -113 -129 -196
-242 -242 l-55 -23 -1032 -3 -1033 -2 0 -1014 c0 -986 -1 -1016 -20 -1079 -26
-84 -89 -168 -163 -217 -111 -75 -100 -73 -687 -80 l-525 -5 -3 -285 c-4 -409
17 -636 84 -909 119 -482 386 -946 817 -1418 137 -150 317 -316 385 -355 241
-138 562 -17 652 246 31 93 32 144 6 308 -114 699 -124 1445 -25 1948 71 361
240 744 461 1041 70 95 221 254 278 294 39 27 40 27 67 10 16 -10 66 -55 112
-99 230 -223 436 -570 561 -946 124 -370 171 -851 140 -1435 -12 -228 -43
-545 -71 -722 -31 -201 -35 -292 -14 -369 58 -215 283 -362 500 -326 141 23
226 83 462 326 488 501 807 1054 918 1591 42 206 56 353 62 665 6 325 -1 476
-49 1090 -27 342 -32 458 -32 745 -1 434 -10 393 244 1180 316 977 412 1429
413 1935 1 371 -56 646 -188 898 -161 308 -390 516 -785 713 -360 179 -686
249 -1060 228z"/>
</g>
</svg>
